<svg width="1000" height="400" viewBox="0 0 1000 400" fill="none" xmlns="http://www.w3.org/2000/svg">
<rect width="1000" height="400" fill="white"/>
<rect x="423.334" y="309.006" width="152.942" height="40.5766" fill="#FFAC02"/>
<path d="M582.919 399.52H416.555C401.357 399.52 389 387.163 389 371.965V65.9088C389 50.7176 401.357 38.3542 416.555 38.3542H434.299V20.666C434.299 9.27018 443.569 0 454.965 0H544.514C555.91 0 565.18 9.27018 565.18 20.666V38.3542H582.919C598.116 38.3542 610.473 50.7145 610.473 65.9088V371.968C610.47 387.163 598.113 399.52 582.919 399.52ZM416.555 52.1315C408.961 52.1315 402.777 58.3116 402.777 65.9088V371.968C402.777 379.563 408.961 385.746 416.555 385.746H582.919C590.513 385.746 596.696 379.563 596.696 371.968V65.9088C596.696 58.3116 590.513 52.1315 582.919 52.1315H551.403V20.666C551.403 16.8674 548.316 13.7773 544.514 13.7773H454.965C451.163 13.7773 448.076 16.8674 448.076 20.666V52.1315H416.555ZM582.488 357.661H416.992V303.363H582.488V357.661ZM430.769 343.883H568.71V317.137H430.769V343.883ZM582.488 288.777H416.992V234.479H582.488V288.777ZM430.769 275H568.71V248.254H430.769V275ZM582.488 219.894H416.992V165.596H582.488V219.894ZM430.769 206.12H568.71V179.373H430.769V206.12ZM582.488 151.013H416.992V96.7127H499.74H582.488V151.013ZM430.769 137.236H568.71V110.49H499.74H430.769V137.236Z" fill="#092551"/>
</svg>
