<svg width="1000" height="400" viewBox="0 0 1000 400" fill="none" xmlns="http://www.w3.org/2000/svg">

<path d="M906.856 207.159H884.104C862.928 207.159 845.596 188.252 845.596 165.149C845.596 142.04 862.92 123.14 884.104 123.14H906.856V207.159V207.159Z" fill="#FFAC02"/>
<path d="M461.344 66.7452V140.542H686.112L614.7 66.7452H461.344V66.7452ZM474.957 126.921V80.3508H608.931L653.997 126.921H474.957ZM415.732 158.335V171.948H336.454V158.335H415.732ZM148.846 206.512C106.556 206.512 72.1481 240.919 72.1481 283.209C72.1481 288.246 72.6393 293.291 73.5984 298.218C80.7091 333.99 112.357 359.954 148.838 359.954C185.32 359.954 216.967 333.99 224.086 298.195C225.045 293.275 225.536 288.231 225.536 283.209C225.544 240.911 191.136 206.512 148.846 206.512ZM210.737 295.552C204.882 324.977 178.856 346.333 148.846 346.333C118.836 346.333 92.802 324.977 86.9622 295.575C86.1669 291.529 85.7693 287.365 85.7693 283.202C85.7693 248.42 114.072 220.117 148.854 220.117C183.643 220.117 211.938 248.42 211.938 283.202C211.93 287.35 211.533 291.513 210.737 295.552ZM598.226 206.512C555.936 206.512 521.528 240.919 521.528 283.209C521.528 288.238 522.011 293.283 522.978 298.218C530.097 333.99 561.736 359.954 598.226 359.954C634.715 359.954 666.355 333.99 673.473 298.195C674.44 293.275 674.923 288.231 674.923 283.209C674.923 240.911 640.516 206.512 598.226 206.512ZM660.117 295.56C654.27 324.985 628.236 346.333 598.226 346.333C568.216 346.333 542.182 324.977 536.334 295.575C535.547 291.521 535.141 287.357 535.141 283.202C535.141 248.42 563.444 220.117 598.226 220.117C633.015 220.117 661.31 248.42 661.31 283.202C661.31 287.35 660.905 291.513 660.117 295.56ZM148.846 233.232C121.276 233.232 98.8524 255.655 98.8524 283.225C98.8524 310.795 121.276 333.226 148.846 333.226C176.416 333.226 198.847 310.795 198.847 283.225C198.847 255.655 176.416 233.232 148.846 233.232ZM115.351 255.991L140.636 281.276H105.706C106.127 271.717 109.674 262.953 115.351 255.991ZM105.932 288.082H140.636L116.692 312.027C110.852 305.516 106.961 297.228 105.932 288.082ZM145.446 326.287C136.457 325.585 128.231 322.116 121.619 316.728L145.446 292.901V326.287ZM145.446 276.465L120.052 251.071C126.905 244.927 135.732 240.935 145.446 240.171V276.465ZM152.253 240.171C161.968 240.935 170.794 244.919 177.647 251.063L152.253 276.465V240.171ZM152.253 326.287V292.893L176.088 316.728C169.469 322.108 161.243 325.578 152.253 326.287ZM181.008 312.027L157.064 288.082H191.768C190.738 297.228 186.848 305.516 181.008 312.027ZM157.064 281.276L182.349 255.991C188.025 262.953 191.573 271.717 192.001 281.276H157.064ZM598.226 233.232C570.656 233.232 548.224 255.655 548.224 283.225C548.224 310.795 570.656 333.226 598.226 333.226C625.795 333.226 648.219 310.795 648.219 283.225C648.219 255.655 625.795 233.232 598.226 233.232ZM564.723 255.991L590.008 281.276H555.078C555.507 271.717 559.054 262.953 564.723 255.991ZM555.304 288.082H590.008L566.064 312.027C560.224 305.516 556.333 297.228 555.304 288.082ZM594.818 326.287C585.829 325.585 577.595 322.116 570.983 316.728L594.818 292.893V326.287ZM594.818 276.465L569.424 251.071C576.278 244.927 585.104 240.935 594.818 240.179V276.465ZM601.625 240.171C611.34 240.935 620.166 244.927 627.019 251.063L601.625 276.457V240.171ZM601.625 326.287V292.901L625.452 316.728C618.848 322.108 610.623 325.578 601.625 326.287ZM630.388 312.027L606.444 288.082H641.147C640.118 297.228 636.22 305.516 630.388 312.027ZM606.436 281.276L631.721 255.991C637.389 262.953 640.937 271.717 641.366 281.276H606.436ZM981.862 187.955H947.829V144.129H981.862C991.304 144.129 998.992 136.441 998.992 126.999C998.992 117.557 991.304 109.87 981.862 109.87H947.829V104.295C947.829 95.4923 940.664 88.3269 931.339 88.3269C924.361 88.3269 918.482 92.8491 916.306 99.0944H888.066C853.627 99.0944 825.301 125.596 822.315 159.271H787.9C769.133 159.271 753.867 174.537 753.867 193.296L753.843 274.298C753.835 281.073 748.323 286.593 741.548 286.593C734.764 286.593 729.252 281.073 729.252 274.298V198.637L728.909 197.592C728.846 197.421 723.131 180.104 717.479 151.817C711.374 121.308 631.206 50.6369 622.092 42.6763L620.174 41H304.097L217.755 132.73C103.102 131.779 24.9537 166.631 9.6797 200.313C5.1965 210.2 5.75788 220.258 11.1455 229.271C7.22369 232.873 4.40122 237.465 2.7249 242.985C-4.64314 267.319 13.929 302.413 14.7243 303.894L16.6501 307.489H69.5284L67.9378 299.372C66.9009 294.07 66.3707 288.636 66.3707 283.209C66.3707 260.209 76.07 238.089 92.9891 222.511C110.134 206.714 132.465 199.097 155.902 201.023C197.779 204.485 230.908 240.21 231.329 282.352C231.383 288.075 230.861 293.798 229.769 299.365L228.179 307.481H518.9L517.31 299.365C516.273 294.078 515.751 288.636 515.751 283.202C515.751 260.201 525.45 238.081 542.369 222.503C559.522 206.707 581.86 199.089 605.274 201.015C647.151 204.477 680.28 240.202 680.701 282.352C680.763 288.067 680.233 293.79 679.149 299.365L692.513 301.984C693.784 295.497 694.384 288.847 694.322 282.219C693.839 233.115 655.221 191.487 606.405 187.456C579.162 185.211 553.144 194.099 533.153 212.492C513.443 230.635 502.145 256.412 502.145 283.202C502.145 286.765 502.34 290.336 502.73 293.868H449.734V140.535V133.728V66.7374H318.778L246.158 140.535H436.106V293.86H244.357C244.778 290 244.973 286.102 244.934 282.211C244.443 233.107 205.825 191.479 157.017 187.448C129.736 185.195 103.749 194.091 83.7655 212.484C64.055 230.627 52.7573 256.404 52.7573 283.194C52.7573 286.757 52.9523 290.32 53.3421 293.86H24.9148C19.7376 282.96 11.512 260.895 15.7457 246.915C17.1491 242.284 19.8234 238.97 23.9246 236.779L31.5967 232.678L25.7802 226.214C20.0027 219.805 18.7942 213.17 22.0767 205.919C35.5965 176.12 115.288 144.846 220.569 146.367L223.563 146.414L309.984 54.6055H615.059C649.474 84.8495 700.263 135.139 704.138 154.483C709.237 179.971 714.29 196.532 715.654 200.812V274.298C715.654 288.581 727.279 300.207 741.563 300.207C755.839 300.207 767.464 288.589 767.472 274.305L767.496 193.296C767.496 182.037 776.657 172.884 787.916 172.884H822.526C826.377 205.654 854.282 231.181 888.074 231.181H916.322C918.513 237.426 924.477 241.948 931.869 241.948C940.672 241.948 947.837 234.783 947.837 225.981V222.199H981.87C991.312 222.199 999 214.511 999 205.077C998.992 195.643 991.304 187.955 981.862 187.955ZM324.486 80.3585H436.106V126.929H278.656L324.486 80.3585ZM981.862 123.483C983.773 123.483 985.379 125.089 985.379 126.999C985.379 128.91 983.773 130.516 981.862 130.516H947.829V123.483H981.862ZM835.64 165.142C835.64 136.231 859.163 112.708 888.074 112.708H915.371V217.575H888.074C859.163 217.575 835.64 194.052 835.64 165.142ZM934.216 225.988C934.216 227.267 933.14 228.343 931.339 228.343C930.06 228.343 928.976 227.259 928.976 225.988V104.295C928.976 103.016 930.06 101.94 931.861 101.94C933.14 101.94 934.216 103.024 934.216 104.295V225.988V225.988ZM981.862 208.601H947.829V201.569H981.862C983.773 201.569 985.379 203.175 985.379 205.085C985.379 206.987 983.773 208.601 981.862 208.601Z" fill="#092551"/>
</svg>
