<?xml version="1.0" encoding="UTF-8"?>
<!-- Generator: Adobe Illustrator 26.5.0, SVG Export Plug-In . SVG Version: 6.00 Build 0)  -->
<svg enable-background="new 0 0 1000 300" version="1.1" viewBox="0 0 1e3 300" xml:space="preserve" xmlns="http://www.w3.org/2000/svg">


	
		
			<path d="m394.86 87.664v32.153h-10.831v-82.132h30.292c8.9867 0 16.027 2.2951 21.125 6.8819 5.0944 4.5868 7.6434 10.661 7.6434 18.22 0 7.9713-2.4926 14.113-7.4742 18.418-4.9852 4.3047-12.121 6.4588-21.407 6.4588h-19.348zm0-8.8562h19.461c5.789 0 10.228-1.3644 13.313-4.0967 3.0813-2.7323 4.6255-6.6774 4.6255-11.839 0-4.897-1.5442-8.8139-4.6255-11.754-3.0849-2.9368-7.3156-4.4634-12.692-4.5762h-20.082v32.266z"/>
			<path d="m451.78 88.736c0-5.9794 1.174-11.356 3.5256-16.133 2.348-4.7771 5.6198-8.4613 9.8152-11.056 4.1919-2.5948 8.9761-3.8922 14.356-3.8922 8.3098 0 15.033 2.8769 20.166 8.6306 5.1332 5.7537 7.6998 13.408 7.6998 22.958v0.73332c0 5.9406-1.1388 11.271-3.4128 15.992-2.2775 4.7207-5.5281 8.3944-9.7588 11.028s-9.0924 3.9486-14.582 3.9486c-8.2745 0-14.977-2.8769-20.11-8.6306-5.1332-5.7537-7.6999-13.369-7.6999-22.846v-0.73332zm10.492 1.241c0 6.7691 1.5689 12.202 4.7101 16.302 3.1378 4.1002 7.3402 6.1486 12.607 6.1486 5.3025 0 9.512-2.0766 12.636-6.2332 3.1201-4.1566 4.6819-9.9738 4.6819-17.459 0-6.695-1.59-12.117-4.7665-16.274-3.1801-4.1566-7.4002-6.2332-12.664-6.2332-5.1544 0-9.3075 2.0483-12.466 6.1486-3.1589 4.1002-4.7383 9.9668-4.7383 17.6z"/>
			<path d="m574.47 105.43 11.733-46.65h10.436l-17.769 61.035h-8.4614l-14.836-46.255-14.441 46.255h-8.4614l-17.712-61.035h10.379l12.015 45.691 14.215-45.691h8.4049l14.497 46.65z"/>
			<path d="m632.57 120.95c-8.2745 0-15.005-2.7182-20.194-8.1511-5.1896-5.4329-7.7844-12.703-7.7844-21.802v-1.9179c0-6.0534 1.1564-11.462 3.4692-16.218 2.3127-4.756 5.5457-8.479 9.7023-11.169 4.1531-2.69 8.6588-4.0332 13.51-4.0332 7.9325 0 14.102 2.6124 18.502 7.8409 4.3999 5.2284 6.5999 12.71 6.5999 22.451v4.3435h-41.348c0.14807 6.0181 1.9073 10.876 5.2742 14.582 3.3634 3.7054 7.6434 5.5563 12.833 5.5563 3.6842 0 6.8043-0.75095 9.3639-2.2564 2.556-1.5054 4.7947-3.4974 6.7126-5.9794l6.3743 4.964c-5.1156 7.8585-12.787 11.789-23.015 11.789zm-1.2974-54.717c-4.2131 0-7.7492 1.5336-10.605 4.5973-2.8592 3.0637-4.6255 7.3614-5.3024 12.889h30.574v-0.78973c-0.30316-5.3024-1.731-9.4097-4.287-12.325-2.5596-2.9156-6.0181-4.3717-10.379-4.3717z"/>
			<path d="m697.95 68.147c-1.5795-0.26441-3.2929-0.39486-5.1332-0.39486-6.8466 0-11.49 2.9156-13.933 8.7434v43.322h-10.436v-61.035h10.154l0.16925 7.0511c3.4198-5.454 8.271-8.1793 14.554-8.1793 2.0307 0 3.5714 0.26442 4.6255 0.78973v9.7024z"/>
			<path d="m731.79 120.95c-8.2745 0-15.005-2.7182-20.194-8.1511-5.1896-5.4329-7.7845-12.703-7.7845-21.802v-1.9179c0-6.0534 1.1564-11.462 3.4692-16.218 2.3127-4.756 5.5457-8.479 9.7023-11.169 4.1531-2.69 8.6588-4.0332 13.51-4.0332 7.9326 0 14.102 2.6124 18.502 7.8409 4.3999 5.2284 6.5999 12.71 6.5999 22.451v4.3435h-41.348c0.14807 6.0181 1.9073 10.876 5.2743 14.582 3.3633 3.7054 7.6434 5.5563 12.833 5.5563 3.6842 0 6.8044-0.75095 9.3639-2.2564 2.556-1.5054 4.7948-3.4974 6.7127-5.9794l6.3742 4.964c-5.1156 7.8585-12.787 11.789-23.015 11.789zm-1.2974-54.717c-4.213 0-7.7491 1.5336-10.605 4.5973-2.8593 3.0637-4.6255 7.3614-5.3024 12.889h30.574v-0.78973c-0.30322-5.3024-1.7311-9.4097-4.2871-12.325-2.5596-2.9156-6.0181-4.3717-10.379-4.3717z"/>
			<path d="m765.13 88.792c0-9.3639 2.2175-16.895 6.6562-22.592 4.4352-5.6973 10.245-8.546 17.43-8.546 7.1428 0 12.805 2.4432 16.979 7.3332v-31.815h10.436v86.644h-9.5895l-0.50769-6.5434c-4.1743 5.1156-9.9844 7.6716-17.43 7.6716-7.0723 0-12.833-2.8945-17.289-8.687s-6.6844-13.351-6.6844-22.676v-0.78972zm10.436 1.1846c0 6.9207 1.4279 12.336 4.287 16.246 2.8557 3.9099 6.8044 5.8665 11.846 5.8665 6.6175 0 11.451-2.9721 14.497-8.9126v-28.035c-3.1237-5.7537-7.9184-8.6306-14.384-8.6306-5.1156 0-9.103 1.9743-11.959 5.9229-2.8592 3.9486-4.287 9.7975-4.287 17.543z"/>
			<path d="m913.09 89.977c0 9.3251-2.1436 16.82-6.4307 22.479-4.287 5.6585-10.041 8.4896-17.261 8.4896-7.7104 0-13.672-2.7253-17.882-8.1793l-0.50769 7.0511h-9.5895v-86.644h10.436v32.322c4.2095-5.2284 10.02-7.8409 17.43-7.8409 7.4072 0 13.228 2.8028 17.459 8.4049 4.2307 5.6021 6.3461 13.274 6.3461 23.015v0.90255zm-10.436-1.1846c0-7.1075-1.375-12.597-4.1179-16.471-2.7465-3.8746-6.6951-5.8101-11.846-5.8101-6.8819 0-11.828 3.1977-14.836 9.5895v26.399c3.1942 6.3918 8.1793 9.5895 14.948 9.5895 4.9993 0 8.8915-1.9355 11.677-5.8101 2.7817-3.8746 4.1743-9.7024 4.1743-17.487z"/>
			<path d="m945.58 104.53 14.215-45.748h11.169l-24.538 70.455c-3.8005 10.154-9.8363 15.23-18.107 15.23l-1.9743-0.16924-3.8922-0.73331v-8.4614l2.8204 0.22565c3.5326 0 6.2896-0.7157 8.2639-2.1436 1.9743-1.4314 3.5996-4.0438 4.8794-7.8409l2.3127-6.205-21.774-60.358h11.395l15.23 45.748z"/>
		
		
			<path d="m394.86 87.664v32.153h-10.831v-82.132h30.292c8.9867 0 16.027 2.2951 21.125 6.8819 5.0944 4.5868 7.6434 10.661 7.6434 18.22 0 7.9713-2.4926 14.113-7.4742 18.418-4.9852 4.3047-12.121 6.4588-21.407 6.4588h-19.348zm0-8.8562h19.461c5.789 0 10.228-1.3644 13.313-4.0967 3.0813-2.7323 4.6255-6.6774 4.6255-11.839 0-4.897-1.5442-8.8139-4.6255-11.754-3.0849-2.9368-7.3156-4.4634-12.692-4.5762h-20.082v32.266z"/>
			<path d="m451.78 88.736c0-5.9794 1.174-11.356 3.5256-16.133 2.348-4.7771 5.6198-8.4613 9.8152-11.056 4.1919-2.5948 8.9761-3.8922 14.356-3.8922 8.3098 0 15.033 2.8769 20.166 8.6306 5.1332 5.7537 7.6998 13.408 7.6998 22.958v0.73332c0 5.9406-1.1388 11.271-3.4128 15.992-2.2775 4.7207-5.5281 8.3944-9.7588 11.028s-9.0924 3.9486-14.582 3.9486c-8.2745 0-14.977-2.8769-20.11-8.6306-5.1332-5.7537-7.6999-13.369-7.6999-22.846v-0.73332zm10.492 1.241c0 6.7691 1.5689 12.202 4.7101 16.302 3.1378 4.1002 7.3402 6.1486 12.607 6.1486 5.3025 0 9.512-2.0766 12.636-6.2332 3.1201-4.1566 4.6819-9.9738 4.6819-17.459 0-6.695-1.59-12.117-4.7665-16.274-3.1801-4.1566-7.4002-6.2332-12.664-6.2332-5.1544 0-9.3075 2.0483-12.466 6.1486-3.1589 4.1002-4.7383 9.9668-4.7383 17.6z"/>
			<path d="m574.47 105.43 11.733-46.65h10.436l-17.769 61.035h-8.4614l-14.836-46.255-14.441 46.255h-8.4614l-17.712-61.035h10.379l12.015 45.691 14.215-45.691h8.4049l14.497 46.65z"/>
			<path d="m632.57 120.95c-8.2745 0-15.005-2.7182-20.194-8.1511-5.1896-5.4329-7.7844-12.703-7.7844-21.802v-1.9179c0-6.0534 1.1564-11.462 3.4692-16.218 2.3127-4.756 5.5457-8.479 9.7023-11.169 4.1531-2.69 8.6588-4.0332 13.51-4.0332 7.9325 0 14.102 2.6124 18.502 7.8409 4.3999 5.2284 6.5999 12.71 6.5999 22.451v4.3435h-41.348c0.14807 6.0181 1.9073 10.876 5.2742 14.582 3.3634 3.7054 7.6434 5.5563 12.833 5.5563 3.6842 0 6.8043-0.75095 9.3639-2.2564 2.556-1.5054 4.7947-3.4974 6.7126-5.9794l6.3743 4.964c-5.1156 7.8585-12.787 11.789-23.015 11.789zm-1.2974-54.717c-4.2131 0-7.7492 1.5336-10.605 4.5973-2.8592 3.0637-4.6255 7.3614-5.3024 12.889h30.574v-0.78973c-0.30316-5.3024-1.731-9.4097-4.287-12.325-2.5596-2.9156-6.0181-4.3717-10.379-4.3717z"/>
			<path d="m697.95 68.147c-1.5795-0.26441-3.2929-0.39486-5.1332-0.39486-6.8466 0-11.49 2.9156-13.933 8.7434v43.322h-10.436v-61.035h10.154l0.16925 7.0511c3.4198-5.454 8.271-8.1793 14.554-8.1793 2.0307 0 3.5714 0.26442 4.6255 0.78973v9.7024z"/>
			<path d="m731.79 120.95c-8.2745 0-15.005-2.7182-20.194-8.1511-5.1896-5.4329-7.7845-12.703-7.7845-21.802v-1.9179c0-6.0534 1.1564-11.462 3.4692-16.218 2.3127-4.756 5.5457-8.479 9.7023-11.169 4.1531-2.69 8.6588-4.0332 13.51-4.0332 7.9326 0 14.102 2.6124 18.502 7.8409 4.3999 5.2284 6.5999 12.71 6.5999 22.451v4.3435h-41.348c0.14807 6.0181 1.9073 10.876 5.2743 14.582 3.3633 3.7054 7.6434 5.5563 12.833 5.5563 3.6842 0 6.8044-0.75095 9.3639-2.2564 2.556-1.5054 4.7948-3.4974 6.7127-5.9794l6.3742 4.964c-5.1156 7.8585-12.787 11.789-23.015 11.789zm-1.2974-54.717c-4.213 0-7.7491 1.5336-10.605 4.5973-2.8593 3.0637-4.6255 7.3614-5.3024 12.889h30.574v-0.78973c-0.30322-5.3024-1.7311-9.4097-4.2871-12.325-2.5596-2.9156-6.0181-4.3717-10.379-4.3717z"/>
			<path d="m765.13 88.792c0-9.3639 2.2175-16.895 6.6562-22.592 4.4352-5.6973 10.245-8.546 17.43-8.546 7.1428 0 12.805 2.4432 16.979 7.3332v-31.815h10.436v86.644h-9.5895l-0.50769-6.5434c-4.1743 5.1156-9.9844 7.6716-17.43 7.6716-7.0723 0-12.833-2.8945-17.289-8.687s-6.6844-13.351-6.6844-22.676v-0.78972zm10.436 1.1846c0 6.9207 1.4279 12.336 4.287 16.246 2.8557 3.9099 6.8044 5.8665 11.846 5.8665 6.6175 0 11.451-2.9721 14.497-8.9126v-28.035c-3.1237-5.7537-7.9184-8.6306-14.384-8.6306-5.1156 0-9.103 1.9743-11.959 5.9229-2.8592 3.9486-4.287 9.7975-4.287 17.543z"/>
			<path d="m913.09 89.977c0 9.3251-2.1436 16.82-6.4307 22.479-4.287 5.6585-10.041 8.4896-17.261 8.4896-7.7104 0-13.672-2.7253-17.882-8.1793l-0.50769 7.0511h-9.5895v-86.644h10.436v32.322c4.2095-5.2284 10.02-7.8409 17.43-7.8409 7.4072 0 13.228 2.8028 17.459 8.4049 4.2307 5.6021 6.3461 13.274 6.3461 23.015v0.90255zm-10.436-1.1846c0-7.1075-1.375-12.597-4.1179-16.471-2.7465-3.8746-6.6951-5.8101-11.846-5.8101-6.8819 0-11.828 3.1977-14.836 9.5895v26.399c3.1942 6.3918 8.1793 9.5895 14.948 9.5895 4.9993 0 8.8915-1.9355 11.677-5.8101 2.7817-3.8746 4.1743-9.7024 4.1743-17.487z"/>
			<path d="m945.58 104.53 14.215-45.748h11.169l-24.538 70.455c-3.8005 10.154-9.8363 15.23-18.107 15.23l-1.9743-0.16924-3.8922-0.73331v-8.4614l2.8204 0.22565c3.5326 0 6.2896-0.7157 8.2639-2.1436 1.9743-1.4314 3.5996-4.0438 4.8794-7.8409l2.3127-6.205-21.774-60.358h11.395l15.23 45.748z"/>
		
	
	
		
			<path d="m349.97 219.72h-13.483v28.488c0 0.87317-0.70782 1.581-1.581 1.581h-13.762c-0.87317 0-1.581-0.70786-1.581-1.581v-78.977c0-0.87318 0.70786-1.581 1.581-1.581h28.939c9.7032 0 17.187 2.1635 22.453 6.4876 5.2648 4.3255 7.8979 10.437 7.8979 18.335 0 5.6047-1.2129 10.277-3.6387 14.019-2.4258 3.7431-6.1026 6.7231-11.029 8.9416l16.966 32.035c0.55768 1.053-0.20563 2.321-1.3972 2.321h-14.804c-0.71201 0-1.364-0.39864-1.6886-1.0323l-14.872-29.036zm-13.483-13.709h13.652c4.2494 0 7.5397-1.0803 9.8724-3.2438 2.3313-2.1621 3.4977-5.1421 3.4977-8.9416 0-3.8728-1.1001-6.9192-3.3002-9.1391-2.2001-2.2185-5.5765-3.3284-10.126-3.3284h-13.596v24.653z"/>
		
		
			<path d="m425.7 248.87c-0.53622-1.2881-0.93909-2.805-1.21-4.5513-3.949 4.4003-9.0826 6.6004-15.401 6.6004-5.9799 0-10.936-1.7291-14.865-5.1901-3.9307-3.4596-5.8953-7.8218-5.8953-13.088 0-6.4678 2.3976-11.432 7.1928-14.893 4.7952-3.4596 11.724-5.2084 20.789-5.2465h7.5031v-3.4977c0-2.8207-0.72491-5.0773-2.1719-6.7697-1.4484-1.6924-3.7332-2.5386-6.8543-2.5386-2.7459 0-4.8995 0.65863-6.4594 1.9745-1.2554 1.0592-2.0056 2.4339-2.2513 4.1242-0.10919 0.75139-0.78461 1.2915-1.5439 1.2915l-13.176 3.05e-5c-0.95807 0-1.6806-0.84483-1.5771-1.7973 0.31-2.8529 1.3683-5.5258 3.1754-8.0187 2.1804-3.0083 5.2648-5.3678 9.2519-7.0799 3.9856-1.7108 8.4621-2.5668 13.427-2.5668 7.5214 0 13.491 1.8899 17.911 5.6696 4.4186 3.7797 6.6286 9.0925 6.6286 15.937v26.458c0.029236 4.6157 0.4682 8.648 1.8953 11.835 0.47775 1.067-0.24298 2.2682-1.4121 2.2682h-13.508c-0.62192 1e-7 -1.2088-0.34668-1.4478-0.92081zm-13.057-10.418c2.4061 0 4.6259-0.53593 6.6569-1.6078 2.0309-1.0719 3.5343-2.5104 4.5131-4.3157v-10.493h-6.0927c-8.1617 0-12.506 2.8207-13.032 8.4621l-0.056427 0.95903c0 2.0309 0.71365 3.705 2.1437 5.0208 1.4287 1.3173 3.3848 1.9745 5.867 1.9745z"/>
		
		
			<path d="m484.53 232.92c0-1.9928-0.98724-3.5625-2.9617-4.7106-1.9745-1.1466-5.1435-2.1719-9.5057-3.0746-14.518-3.0464-21.776-9.2138-21.776-18.504 0-5.4157 2.2467-9.9373 6.7415-13.568 4.4934-3.6288 10.37-5.4439 17.629-5.4439 7.747 0 13.943 1.825 18.588 5.4721 4.199 3.2988 6.5004 7.4887 6.9031 12.57 0.070984 0.89552-0.68414 1.6465-1.5825 1.6465h-13.194c-0.767 0-1.4463-0.55025-1.5483-1.3105-0.23532-1.7532-0.95972-3.2441-2.1717-4.472-1.5049-1.5232-3.8559-2.2848-7.0518-2.2848-2.7459 0-4.8713 0.62056-6.3748 1.8617-1.5049 1.2411-2.2566 2.8207-2.2566 4.7388 0 1.8053 0.85468 3.2635 2.5668 4.3721 1.7108 1.1099 4.5977 2.069 8.6595 2.8771 4.0618 0.80954 7.4833 1.7206 10.267 2.7361 8.6116 3.1592 12.919 8.6313 12.919 16.416 0 5.5667-2.3891 10.07-7.1646 13.511-4.7769 3.4413-10.944 5.1619-18.504 5.1619-5.1154 0-9.6567-0.91251-13.624-2.7361-3.9687-1.8236-7.0799-4.3241-9.3365-7.5031-1.8862-2.6559-2.984-5.4893-3.2936-8.5008-0.0979-0.9523 0.61819-1.7948 1.5755-1.7948h12.376c0.7485 0 1.4277 0.52028 1.5448 1.2596 0.36252 2.2885 1.3911 4.0873 3.0858 5.3973 1.9928 1.5429 4.6626 2.313 8.0108 2.313 3.1211 0 5.4806-0.59235 7.08-1.777 1.5979-1.1847 2.3976-2.7361 2.3976-4.6541z"/>
		
		
			<path d="m565.09 219.83c0 9.4028-2.1353 16.934-6.403 22.594-4.2691 5.6611-10.033 8.4903-17.291 8.4903-6.1689 0-11.152-2.1437-14.95-6.4312v27.19c0 0.87317-0.70789 1.581-1.5811 1.581h-13.142c-0.87317 0-1.581-0.70786-1.581-1.581v-81.346c0-0.87317 0.70786-1.581 1.581-1.581h12.099c0.81567 0 1.4974 0.6205 1.574 1.4325l0.42902 4.5473c3.949-4.7388 9.101-7.1082 15.457-7.1082 7.5214 0 13.37 2.784 17.545 8.3493 4.1746 5.5666 6.262 13.239 6.262 23.017v0.84622zm-16.304-1.1847c0-5.6781-1.007-10.06-3.0181-13.144-2.0126-3.083-4.9362-4.6259-8.7724-4.6259-5.1153 0-8.6313 1.9562-10.549 5.8671v24.991c1.9928 4.0251 5.5469 6.0363 10.662 6.0363 7.7851 0 11.678-6.3748 11.678-19.124z"/>
		
		
			<path d="m629.65 219.83c0 9.7793-2.0873 17.404-6.2619 22.876-4.1747 5.4722-10.005 8.2082-17.488 8.2082-6.6202 0-11.903-2.5386-15.852-7.6159l-0.57477 5.0842c-0.090332 0.79936-0.76654 1.4034-1.571 1.4034h-11.674c-0.87317 0-1.581-0.70786-1.581-1.581v-83.49c0-0.87317 0.70782-1.581 1.581-1.581h13.142c0.87317 0 1.581 0.70786 1.581 1.581v29.503c3.76-4.4003 8.7061-6.6004 14.837-6.6004 7.4467 0 13.286 2.7361 17.517 8.2082 4.2311 5.4722 6.3466 13.173 6.3466 23.102v0.90263zm-16.304-1.1847c0-6.1674-0.97882-10.671-2.9335-13.511-1.9562-2.839-4.8713-4.2593-8.7441-4.2593-5.1901 0-8.7639 2.1254-10.719 6.3748v24.089c1.9929 4.2875 5.6033 6.4312 10.831 6.4312 5.2648 0 8.7244-2.595 10.38-7.7851 0.7898-2.4822 1.1847-6.2619 1.1847-11.339z"/>
		
		
			<path d="m666.98 250.92c-8.9515 0-16.239-2.7445-21.86-8.2364-5.623-5.4905-8.4338-12.806-8.4338-21.945v-1.5796c0-6.1294 1.1847-11.611 3.5541-16.445 2.3694-4.8318 5.726-8.5552 10.07-11.17 4.3439-2.6134 9.2984-3.9208 14.865-3.9208 8.3492 0 14.922 2.6331 19.717 7.8979 4.7952 5.2662 7.1927 12.731 7.1927 22.396v5.0758c0 0.87317-0.70782 1.581-1.581 1.581h-37.288c0.52606 3.987 2.1155 7.1843 4.767 9.5904 2.6514 2.4075 6.0081 3.6105 10.07 3.6105 5.6522 0 10.193-1.8427 13.622-5.529 0.62604-0.673 1.7173-0.60803 2.3295 0.077515l5.9114 6.6191c0.5058 0.56631 0.55853 1.4296 0.086304 2.0242-2.3529 2.9621-5.4 5.3109-9.1434 7.0473-4.1747 1.9364-8.8006 2.9053-13.878 2.9053zm-1.8616-50.152c-3.2354 0-5.8586 1.0958-7.8698 3.2875-2.0126 2.1903-3.3002 5.3269-3.8644 9.4056h22.678v-1.3032c-0.076172-3.6274-1.0535-6.4312-2.9335-8.4155-1.8814-1.983-4.5511-2.9744-8.0107-2.9744z"/>
		
		
			<path d="m735.57 202.28c-0.013245 0.92189-0.81317 1.6475-1.73 1.55-1.5302-0.1628-2.9172-0.24448-4.1624-0.24448-6.1688 0-10.211 2.0873-12.129 6.2619v38.36c0 0.87317-0.70789 1.581-1.5811 1.581h-13.142c-0.87317 0-1.5811-0.70786-1.5811-1.581v-57.878c0-0.87317 0.70789-1.581 1.5811-1.581h12.334c0.83521 0 1.5263 0.6496 1.578 1.4832l0.35938 5.7942c3.272-5.6033 7.802-8.4057 13.596-8.4057 1.3589 0 2.6539 0.13905 3.8849 0.41595 0.70758 0.15916 1.185 0.82605 1.1746 1.5512l-0.18262 12.692z"/>
		
		
			<path d="m776.77 202.28c-0.013306 0.92188-0.81323 1.6475-1.73 1.5499-1.5294-0.1627-2.9175-0.24434-4.1623-0.24434-6.1661 0-10.211 2.0873-12.129 6.2619v38.36c0 0.87317-0.70782 1.581-1.581 1.581h-13.142c-0.87317 0-1.581-0.70786-1.581-1.581v-57.878c0-0.87317 0.70782-1.581 1.581-1.581h12.334c0.83514 0 1.5263 0.6496 1.578 1.4832l0.35931 5.7942c3.272-5.6033 7.8049-8.4057 13.596-8.4057 1.3589 0 2.6539 0.13905 3.8849 0.41595 0.70758 0.15916 1.185 0.82605 1.1746 1.5512l-0.18262 12.692z"/>
		
		
			<path d="m809.65 226.72 10.947-36.836c0.19934-0.67072 0.8158-1.1306 1.5155-1.1306h14.085c1.0879 0 1.8508 1.0732 1.4932 2.1007l-23.809 68.417-1.3539 3.2156c-3.6472 7.9727-9.6665 11.96-18.052 11.96-1.9841 0-3.994-0.25119-6.0311-0.75198-0.70099-0.1723-1.1899-0.82471-1.1899-1.5466v-9.4835c0-0.89758 0.74634-1.6151 1.6432-1.5798l1.6199 0.063782c3.083 0 4.6066-0.54312 6.1298-1.4824 1.5232-0.9407 2.7163-2.502 3.5823-4.6823l1.9181-5.0208-20.646-59.107c-0.35901-1.0278 0.40387-2.1024 1.4926-2.1024h14.14c0.69891 0 1.3149 0.45891 1.5149 1.1286l11.002 36.838z"/>
		
		
			<path d="m891.61 220.85v27.359c0 0.87317-0.70782 1.581-1.581 1.581h-13.762c-0.87317 0-1.5811-0.70786-1.5811-1.581v-78.977c0-0.87318 0.70789-1.581 1.5811-1.581h30.462c6.1688 0 11.593 1.1283 16.275 3.3848 4.6824 2.2566 8.2844 5.4637 10.803 9.6186 2.5189 4.1563 3.7797 8.8852 3.7797 14.188 0 8.0489-2.7558 14.395-8.2646 19.04-5.5088 4.6457-13.136 6.9671-22.876 6.9671h-14.837zm0-13.709h15.119c4.4764 0 7.8895-1.0521 10.239-3.1592 2.3496-2.1057 3.5258-5.1139 3.5258-9.0262 0-4.0237-1.1847-7.2774-3.5541-9.7596-2.3694-2.4822-5.6414-3.76-9.816-3.8361h-15.514v25.781z"/>
		
		
			<path d="m945.59 172.95c0-2.4441 0.81799-4.4567 2.454-6.0363 1.636-1.5796 3.8644-2.3694 6.6851-2.3694 2.7841 0 5.0011 0.78979 6.6569 2.3694s2.4822 3.5922 2.4822 6.0363c0 2.4822-0.83771 4.5131-2.5104 6.0927s-3.8841 2.3694-6.6287 2.3694c-2.7445 0-4.9559-0.78979-6.6286-2.3694-1.6727-1.5796-2.5104-3.6105-2.5104-6.0927zm15.738 76.836h-13.198c-0.87317 0-1.581-0.70786-1.581-1.581v-57.878c0-0.87317 0.70782-1.581 1.581-1.581h13.198c0.87317 0 1.5811 0.70786 1.5811 1.581v57.878c0 0.87317-0.70789 1.581-1.5811 1.581z"/>
		
	
	<path d="m357.66 91.144h-25.354v-24.788h25.354c2.9897 0 5.4152-2.4256 5.4152-5.4153s-2.4255-5.4153-5.4152-5.4153h-25.354v-4.5032c0-3.1849-2.5825-5.7667-5.7678-5.7667h-8.5918c-12.74 0-23.068 10.327-23.068 23.067v5.0105h-20.979c-5.5951 0-10.15-4.5515-10.15-10.147v-6.7973c0-16.813-13.676-30.489-30.486-30.489h-174.4c-16.81 0-30.486 13.676-30.486 30.489v174.4c0 16.813 13.676 30.489 30.486 30.489h174.4c16.81 0 30.486-13.676 30.486-30.489v-72.147c0-11.285-9.1806-20.469-20.466-20.469l-0.0015869 0.0013428v-77.685c0-7.7974-6.321-14.118-14.118-14.118h-166.2c-7.7974 0-14.118 6.321-14.118 14.118v166.2c0 7.7974 6.321 14.118 14.118 14.118h166.2c7.7974 0 14.118-6.321 14.118-14.118v-77.688l0.0015869 9.766e-4c5.313 0 9.6353 4.3223 9.6353 9.6389v72.147c0 10.841-8.8174 19.659-19.655 19.659h-174.4c-10.838 0-19.655-8.8174-19.655-19.659v-174.4c0-10.841 8.8174-19.659 19.655-19.659h174.4c10.838 0 19.655 8.8174 19.655 19.659v6.7973c0 11.567 9.4133 20.977 20.981 20.977h20.979v5.0129c0 12.74 10.328 23.067 23.068 23.067h8.5918c3.1854 0 5.7678-2.5818 5.7678-5.7667v-4.5021h25.354c2.9897 0 5.4152-2.4256 5.4152-5.4153s-2.4255-5.4153-5.4152-5.4153zm-36.185 10.269h-3.5291c-6.7479 0-12.237-5.4893-12.237-12.237v-20.854c0-6.7473 5.4893-12.237 12.237-12.237h3.5291v45.327z"/>
	
		<path style="fill:#FFFFFF;" d="m206.67 156.37c-0.69562-7.2346-3.9477-13.671-8.5661-17.063-0.8241-2.9189-2.1586-5.5132-3.9761-7.7321-0.27287-3.4089-1.7264-10.07-8.4402-15.945 0.74692-0.66077 1.452-1.4555 1.9539-2.3812 5.6059-2.5037 9.5585-7.7615 10.017-11.672 2.9897-2.9917 4.7021-6.5291 4.8455-10.049 0.068222-1.6587-0.23105-3.2053-0.85696-4.5233 2.4753-2.6735 3.2924-5.824 2.2403-8.8714-1.6741-4.8485-7.5379-7.9955-15.414-8.3291-2.1123-1.927-5.0556-2.9389-8.5836-2.9389-1.5078 0-3.0922 0.19619-4.6334 0.57015-1.2628-0.606-2.8139-0.9222-4.5547-0.9222-2.9518 0-6.1885 0.89331-8.6891 2.3682-0.3416-0.044815-0.69165-0.067718-1.0487-0.067718-3.9109-5.035e-4 -7.8192 2.6939-9.801 4.3002-1.9634 1.5904-3.7381 3.4493-5.1512 5.3669-1.4132-1.9171-3.1878-3.7759-5.1507-5.3669-1.9818-1.6059-5.8907-4.2998-9.8006-4.3002-0.35751 0-0.70782 0.022903-1.0494 0.067718-2.5004-1.4744-5.7373-2.3682-8.6889-2.3682-1.7406 0-3.2919 0.31619-4.5549 0.9222-1.5414-0.37396-3.1251-0.57015-4.6336-0.57015-3.5274 0-6.4713 1.0118-8.5831 2.9389-7.877 0.33363-13.741 3.4806-15.415 8.3291-1.0524 3.0474-0.23503 6.1979 2.24 8.8714-0.62617 1.3186-0.92444 2.8652-0.85671 4.5238 0.14341 3.52 1.8563 7.0569 4.8457 10.048 0.45836 3.9109 4.411 9.1682 10.017 11.672 0.50193 0.92567 1.207 1.7199 1.9539 2.3812-6.7135 5.8748-8.167 12.536-8.4402 15.945-1.8175 2.2183-3.1512 4.8126-3.9758 7.7321-4.6182 3.3915-7.8708 9.8279-8.5664 17.063-0.69164 7.1903 1.281 13.904 5.2961 18.156 0.55023 3.2267 2.3886 7.4492 4.3662 10.026 0.39711 5.4505 2.7185 10.826 6.5863 15.218 3.8942 4.4218 9.029 7.4682 14.523 8.6309 3.3188 3.1042 6.8507 5.2892 11.616 7.1903 2.0799 2.0968 8.1429 7.14 18.271 7.14 10.127 0 16.191-5.0432 18.271-7.14 4.7648-1.9016 8.2973-4.0866 11.616-7.1903 5.4943-1.1627 10.629-4.2091 14.523-8.6309 3.8675-4.3919 6.189-9.7677 6.5863-15.218 1.9778-2.5769 3.8167-6.7994 4.366-10.026 4.0154-4.2525 5.9883-10.966 5.2966-18.156zm-27.127-21.991c-4.7544-2.5923-9.2478-6.3747-12.644-10.598-4.5343-5.3873-1.5874-7.7874 5.5556-6.4932 5.3245 1.2912 10.36 5.5142 12.547 10.531 2.538 6.7511 0.56119 9.9967-5.459 6.5599zm-18.808-57.383c0.41927-0.12747 0.82907 0.22358 0.78925 0.65977-0.19719 1.8578 0.92667 1.6238 1.1926 1.2937 2.9259-3.638 6.0246-4.4656 8.7997-4.2211 0.48799 0.042824 0.72102 0.61147 0.42474 1.0019-1.1024 1.6353 0.085159 1.946 0.52434 1.6522 4.5034-2.8154 8.7987-2.8204 10.447-1.6377 0.31967 0.22906 0.33113 0.7031 0.037338 0.96402-1.6666 1.4196-0.73396 2.1267-0.1454 1.9111 4.5721-1.6133 10.884-0.18574 13.085 1.6756 0.29179 0.24648 0.30176 0.69314 0.015945 0.94709-2.7825 2.4658-4.1504 4.4466-4.7743 8.3276-0.12398 1.095 1.693 0.86443 2.4599 0.66724 0.38142-0.098099 0.76285 0.18623 0.77332 0.58011 0.069214 2.6316-2.42 5.5247-6.1232 7.999-0.49596 0.33113-0.42575 1.1264 0.70657 1.1557 0.51089 0.037849 0.74742 0.51389 0.52634 0.92369-1.3206 2.4514-3.1166 4.7594-9.2339 6.3443-0.5826 0.15137-0.62941 0.94659-0.086151 1.1826 0.54276 0.23653 0.54874 0.75638 0.19519 1.0601-6.0909 5.2324-21.53 3.1694-23.49-5.6372-0.039337-0.17577 0.0029907-0.36001 0.11105-0.50391 3.6634-4.8868 12.179-14.45 25.603-19.48 0.54526-0.20416 0.33463-1.0233-0.241-0.93763-13.038 1.9365-22.22 9.1836-27.805 16.762-0.18425 0.25047-0.52036 0.32367-0.79672 0.18076-9.8967-5.1094-1.7697-20.197 7.0036-22.871zm-14.723 39.008c1.8997 0 6.8313 0.17578 11.99 4.2201 8.609 7.1555-1.2548 12.221-11.99 12.221s-20.598-5.0656-11.989-12.221c5.1577-4.0443 10.09-4.2201 11.989-4.2201zm-43.463-15.108c-0.22109-0.40981 0.015434-0.88584 0.52657-0.92369 1.1321-0.029373 1.2028-0.82459 0.70658-1.1557-3.7035-2.4743-6.1927-5.3673-6.1235-7.999 0.01046-0.39388 0.39188-0.67821 0.77356-0.58011 0.76659 0.19719 2.5836 0.42773 2.4596-0.66724-0.62392-3.881-1.9913-5.8618-4.7743-8.3276-0.28582-0.25395-0.27611-0.70061 0.015686-0.94709 2.2017-1.8613 8.5134-3.2889 13.085-1.6756 0.58857 0.21561 1.5212-0.49148-0.14491-1.9111-0.29428-0.26092-0.28283-0.73496 0.03685-0.96402 1.6487-1.1826 5.9442-1.1776 10.447 1.6377 0.43944 0.29379 1.6268-0.01693 0.52433-1.6522-0.29578-0.39039-0.062736-0.95904 0.42475-1.0019 2.775-0.24449 5.8743 0.58309 8.8002 4.2211 0.26541 0.33014 1.3893 0.56417 1.1926-1.2937-0.040329-0.4362 0.36948-0.78725 0.78874-0.65977 8.7738 2.6745 16.9 17.762 7.0036 22.871-0.27637 0.14291-0.61247 0.06971-0.79671-0.18076-5.585-7.5787-14.766-14.826-27.805-16.762-0.57562-0.085648-0.786 0.73347-0.241 0.93763 13.424 5.0297 21.939 14.593 25.603 19.48 0.10756 0.14391 0.14989 0.32814 0.11055 0.50391-1.9594 8.8067-17.399 10.87-23.49 5.6372-0.35354-0.30375-0.34731-0.8236 0.19545-1.0601 0.54301-0.23602 0.49644-1.0312-0.086395-1.1826-6.1173-1.585-7.9133-3.8929-9.2339-6.3443zm4.472 26.923c2.1872-5.0168 7.2232-9.2399 12.547-10.531 7.143-1.2942 10.09 1.1059 5.5556 6.4932-3.396 4.2231-7.8894 8.0055-12.644 10.598-6.0199 3.4368-7.9967 0.19121-5.4592-6.5599zm-12.453 37.513c-1.9885-5.2045-1.4931-11.534 1.4308-16.401 3.1806-5.4117 6.3819-5.196 7.6524-0.61147 1.6375 6.054 1.0063 13.275-1.6572 18.952-2.3553 4.6817-5.3014 3.0997-7.4261-1.9395zm22.936 35.054c-7.635-1.6089-14.12-9.3006-14.413-17.1 1.1941-27.785 41.238 21.834 14.413 17.1zm0.81514-34.606c-6.7153-3.877-8.4925-13.371-3.9691-21.205 4.5231-7.8342 13.633-11.042 20.349-7.1654 6.7153 3.877 8.4924 13.371 3.9691 21.205-4.5233 7.8347-13.634 11.042-20.349 7.1654zm38.898 45.209c-3.1525 2.2741-7.021 3.6146-11.206 3.6146-4.1842 0-8.0533-1.3405-11.205-3.6146-6.654-4.5945 0.039825-9.8817 11.205-9.8817s17.859 5.2872 11.206 9.8817zm-11.206-16.843c-8.6085 0-15.587-5.9818-15.587-13.36 0-7.3786 6.9784-13.36 15.587-13.36s15.587 5.9818 15.587 13.36c-1e-7 7.3785-6.9787 13.36-15.587 13.36zm7.3437-35.532c-4.5233-7.8342-2.7462-17.328 3.9691-21.205 6.7148-3.877 15.825-0.66875 20.349 7.1654s2.7462 17.328-3.9691 21.205c-6.7148 3.877-15.825 0.66924-20.349-7.1654zm21.164 41.771c-26.825 4.7345 13.218-44.885 14.413-17.1-0.29279 7.7993-6.777 15.491-14.413 17.1zm22.936-35.054c-2.1252 5.0392-5.0711 6.6212-7.4263 1.9395-2.6635-5.6776-3.2944-12.898-1.6572-18.952 1.2708-4.5846 4.4715-4.8002 7.6524 0.61147 2.9239 4.8669 3.4194 11.197 1.4311 16.401z"/>
	

</svg>
